<svg width="512" height="512" viewBox="0 0 512 512" fill="none" xmlns="http://www.w3.org/2000/svg">
  <defs>
    <filter id="softGlow" x="-30%" y="-30%" width="160%" height="160%">
      <feGaussianBlur stdDeviation="2.5" result="blur"/>
      <feMerge>
        <feMergeNode in="blur"/>
        <feMergeNode in="SourceGraphic"/>
      </feMerge>
    </filter>

    <!-- Creates transparent empty space under the add button -->
    <mask id="hide-under-add-button">
      <rect width="512" height="512" fill="white"/>
      <circle cx="362" cy="156" r="58" fill="black"/>
    </mask>
  </defs>

  <g filter="url(#softGlow)" stroke="#63FFE8" stroke-linecap="round" stroke-linejoin="round">
    <!-- Table layer with hidden area under add button -->
    <g mask="url(#hide-under-add-button)">
      <!-- Outer table -->
      <rect x="96" y="156" width="320" height="200" rx="100" stroke-width="10"/>

      <!-- Inner rail -->
      <rect x="136" y="196" width="240" height="120" rx="60" stroke-width="6" opacity="0.75"/>

      <!-- Top chairs with gap -->
      <rect x="176" y="116" width="56" height="40" rx="12" stroke-width="8"/>
      <rect x="280" y="116" width="56" height="40" rx="12" stroke-width="8"/>

      <!-- Bottom chairs with gap -->
      <rect x="176" y="356" width="56" height="40" rx="12" stroke-width="8"/>
      <rect x="280" y="356" width="56" height="40" rx="12" stroke-width="8"/>

      <!-- Side chairs -->
      <rect x="56" y="226" width="40" height="60" rx="12" stroke-width="8"/>
      <rect x="416" y="226" width="40" height="60" rx="12" stroke-width="8"/>
    </g>

    <!-- Add button, drawn above hidden area -->
    <circle cx="362" cy="156" r="48" stroke-width="8"/>
    <path d="M362 130V182" stroke-width="8"/>
    <path d="M336 156H388" stroke-width="8"/>
  </g>
</svg>
